<svg xmlns="http://www.w3.org/2000/svg" xmlns:xlink="http://www.w3.org/1999/xlink" width="1080" zoomAndPan="magnify" viewBox="0 0 810 809.999993" height="1080" preserveAspectRatio="xMidYMid meet" version="1.0"><defs><clipPath id="fefe57b136"><path d="M 158.113281 104.515625 L 651.878906 104.515625 L 651.878906 705.484375 L 158.113281 705.484375 Z M 158.113281 104.515625 " clip-rule="nonzero"/></clipPath><clipPath id="3831f73dd0"><path d="M 0.113281 0.515625 L 493.878906 0.515625 L 493.878906 601.484375 L 0.113281 601.484375 Z M 0.113281 0.515625 " clip-rule="nonzero"/></clipPath><clipPath id="5ab87d066c"><rect x="0" width="494" y="0" height="602"/></clipPath><clipPath id="bed8206198"><path d="M 177 142 L 631 142 L 631 660 L 177 660 Z M 177 142 " clip-rule="nonzero"/></clipPath><clipPath id="32f0813d84"><path d="M 298.128906 462.632812 L 386.070312 258.414062 L 471.773438 462.632812 Z M 602.71875 593.019531 C 598.238281 584.320312 593.609375 574.28125 588.832031 562.894531 L 412.910156 142.515625 L 399.882812 142.515625 L 222.09375 558.414062 C 217.574219 569.164062 213.171875 578.796875 208.878906 587.417969 L 177.972656 659.421875 L 212.984375 659.421875 L 286.554688 490.21875 L 482.226562 490.21875 L 512.796875 562.894531 C 516.828125 572.488281 520 580.960938 522.390625 588.464844 L 551.394531 659.421875 L 630.675781 659.421875 Z M 602.71875 593.019531 " clip-rule="nonzero"/></clipPath><clipPath id="8c1d8dd1d4"><path d="M 0.839844 0.320312 L 453.71875 0.320312 L 453.71875 517.519531 L 0.839844 517.519531 Z M 0.839844 0.320312 " clip-rule="nonzero"/></clipPath><clipPath id="fde5382d7e"><path d="M 121.128906 320.632812 L 209.070312 116.414062 L 294.773438 320.632812 Z M 425.71875 451.019531 C 421.238281 442.320312 416.609375 432.28125 411.832031 420.894531 L 235.910156 0.515625 L 222.882812 0.515625 L 45.09375 416.414062 C 40.574219 427.164062 36.171875 436.796875 31.878906 445.417969 L 0.972656 517.421875 L 35.984375 517.421875 L 109.554688 348.21875 L 305.226562 348.21875 L 335.796875 420.894531 C 339.828125 430.488281 343 438.960938 345.390625 446.464844 L 374.394531 517.421875 L 453.675781 517.421875 Z M 425.71875 451.019531 " clip-rule="nonzero"/></clipPath><clipPath id="a0bad2d524"><rect x="0" width="454" y="0" height="518"/></clipPath></defs><rect x="-81" width="972" fill="#fff200" y="-80.999999" height="971.999992" fill-opacity="1"/><g clip-path="url(#fefe57b136)"><g transform="matrix(1, 0, 0, 1, 158, 104)"><g clip-path="url(#5ab87d066c)"><g clip-path="url(#3831f73dd0)"><rect x="-336.2" width="1166.4" fill="#fff200" height="1166.39999" y="-282.199998" fill-opacity="1"/></g></g></g></g><g clip-path="url(#bed8206198)"><g clip-path="url(#32f0813d84)"><g transform="matrix(1, 0, 0, 1, 177, 142)"><g clip-path="url(#a0bad2d524)"><g clip-path="url(#8c1d8dd1d4)"><g clip-path="url(#fde5382d7e)"><rect x="-355.2" width="1166.4" fill="#ed1c24" height="1166.39999" y="-320.199998" fill-opacity="1"/></g></g></g></g></g></g></svg>